<svg width="30" height="30" viewBox="0 0 30 30" fill="none" xmlns="http://www.w3.org/2000/svg">
<path d="M24.0378 19.0752L20.8628 18.7127C20.4895 18.6689 20.1111 18.7102 19.756 18.8336C19.4009 18.957 19.0785 19.1593 18.8128 19.4252L16.5128 21.7252C12.9645 19.9201 10.0804 17.036 8.27529 13.4877L10.5878 11.1752C11.1253 10.6377 11.3878 9.8877 11.3003 9.1252L10.9378 5.9752C10.8672 5.36531 10.5746 4.80273 10.1159 4.39469C9.65712 3.98665 9.06426 3.7617 8.4503 3.7627H6.2878C4.8753 3.7627 3.70029 4.9377 3.78779 6.3502C4.45029 17.0252 12.9878 25.5502 23.6503 26.2127C25.0628 26.3002 26.2378 25.1252 26.2378 23.7127V21.5502C26.2503 20.2877 25.3003 19.2252 24.0378 19.0752Z" fill="#252525"/>
</svg>
